<?xml version="1.0" encoding="UTF-8" standalone="no"?>
<!DOCTYPE svg PUBLIC "-//W3C//DTD SVG 1.1//EN" "http://www.w3.org/Graphics/SVG/1.1/DTD/svg11.dtd">
<!-- Created with Vectornator (http://vectornator.io/) -->
<svg height="100%" stroke-miterlimit="10" style="fill-rule:nonzero;clip-rule:evenodd;stroke-linecap:round;stroke-linejoin:round;" version="1.1" viewBox="0 0 246.39 252.317" width="100%" xml:space="preserve" xmlns="http://www.w3.org/2000/svg" xmlns:vectornator="http://vectornator.io" xmlns:xlink="http://www.w3.org/1999/xlink">
<defs/>
<clipPath id="ArtboardFrame">
<rect height="252.317" width="246.39" x="0" y="0"/>
</clipPath>
<g clip-path="url(#ArtboardFrame)" id="Layer-1" vectornator:layerName="Layer 1">
<path d="M139.958 196.157C125.715 197.614 112.943 196.905 99.5413 196.463C83.741 195.941 87.4555 195.751 69.243 192.845C61.3184 191.581 47.3445 190.251 46.6003 196.062C46.4015 197.615 58.9487 206.57 62.0506 207.15C66.2792 207.94 75.2962 214.16 99.8856 215.918C119.635 217.33 155.689 215.482 167.668 212.057C171.873 210.855 191.913 200.77 193.786 198.914C195.309 197.405 204.992 190.262 204.825 187.172C204.736 185.529 195.562 187.246 185.068 188.991C169.251 191.621 159.875 194.119 139.958 196.157Z" fill="#074d66" fill-rule="evenodd" opacity="1" stroke="none"/>
<path d="M205.923 45.4859C195.566 47.9483 190.307 50.5746 159.079 52.6109C126.021 54.7666 142.217 54.6397 103.923 52.8296C65.6293 51.0196 52.5479 43.7564 49.1731 46.5484C44.8347 50.1375 44.3219 75.8755 44.2669 81.3296C44.0798 99.884 43.6862 102 45.2044 117.111C45.6069 121.118 48.0553 141.596 48.9544 145.392C51.4949 156.118 54.468 161.756 56.5169 165.486C59.9206 171.682 63.9811 176.145 68.9544 179.798C71.4545 181.635 76.8071 184.593 83.4544 186.83C87.2915 188.121 111.882 190.319 124.923 189.861C137.514 189.419 156.864 187.698 162.298 186.048C164.287 185.444 171.151 182.963 176.454 177.642C182.077 172.002 184.175 169.471 187.361 163.205C191.023 156 190.914 158.091 195.767 142.986C199.001 132.921 202.489 121.925 205.048 110.486C208.25 96.175 210.151 85.3315 211.486 74.2359C212.93 62.2267 216.655 42.9343 205.923 45.4859ZM72.6348 76.0078C76.0915 76.5607 79.503 77.2942 82.9473 77.9141C85.9031 78.446 88.9106 78.769 91.8848 79.1641C92.8173 79.288 93.7018 79.516 94.6348 79.6328C96.9077 79.9173 99.2252 80.0859 101.51 80.2578C108.885 80.8127 116.308 80.7658 123.697 80.6641C133.98 80.5223 144.274 80.1226 154.541 79.5391C161.391 79.1498 168.232 78.7033 175.072 78.1641C179.218 77.8373 183.489 77.6612 187.604 77.0391C185.955 77.5693 184.248 77.9524 182.572 78.3828C178.881 79.3309 175.185 80.2453 171.479 81.1328C161.501 83.522 151.482 85.7446 141.447 87.8828C131.508 90.0007 121.54 92.0354 111.541 93.8516C105.888 94.8784 100.23 95.8488 94.5098 96.3828C92.713 96.5506 90.9765 96.7484 89.166 96.7266C82.5295 96.6465 76.193 94.9704 69.6973 93.8516C64.769 93.0346 61.4115 88.3736 62.2285 83.4453C63.0455 78.517 67.7065 75.1908 72.6348 76.0078ZM181.791 104.102C179.457 105.045 177.158 106.068 174.822 107.008C170.214 108.862 165.543 110.619 160.854 112.258C144.441 117.994 127.691 122.405 110.572 125.414C105.519 126.302 100.478 127.308 95.3848 127.945C94.4488 128.062 93.4779 128.123 92.541 128.227C91.6861 128.321 90.8676 128.476 90.0098 128.539C87.1431 128.748 84.201 128.488 81.3535 128.164C77.2594 127.698 73.1658 127.045 69.0723 126.57C64.1064 126.027 60.5289 121.567 61.0723 116.602C61.6156 111.636 66.0751 108.027 71.041 108.57C75.622 109.043 80.167 109.697 84.7285 110.32C86.6305 110.58 88.5494 110.758 90.4473 111.039C91.1548 111.144 91.8637 111.316 92.5723 111.414C93.3807 111.526 94.1976 111.525 95.0098 111.602C97.4867 111.835 99.9616 112.065 102.447 112.195C107.379 112.454 112.321 112.606 117.26 112.602C133.587 112.588 149.927 110.621 165.947 107.57C171.266 106.558 176.508 105.269 181.791 104.102ZM173.041 132.789C170.612 133.929 168.267 135.238 165.854 136.414C161.064 138.747 156.192 140.93 151.26 142.945C138.41 148.197 125.095 152.572 111.447 155.195C107.737 155.908 104.007 156.388 100.26 156.852C97.8326 157.152 95.4122 157.407 92.9785 157.633C91.7409 157.747 90.5009 157.943 89.2598 158.008C87.4381 158.103 85.5816 158.04 83.7598 157.977C79.4736 157.828 75.2066 157.466 70.9473 156.977C65.9808 156.439 62.3785 151.974 62.916 147.008C63.4536 142.041 67.9182 138.439 72.8848 138.977C78.5395 139.548 84.282 139.633 89.916 140.383C91.0834 140.538 92.2203 140.801 93.3848 140.977C97.23 141.557 101.106 142.075 104.979 142.445C109.336 142.862 113.699 142.914 118.072 142.789C131.693 142.4 145.266 140.1 158.479 136.852C161.681 136.064 164.874 135.209 168.041 134.289C169.712 133.804 171.358 133.23 173.041 132.789Z" fill="#074d66" fill-rule="evenodd" opacity="1" stroke="none"/>
<path d="M185.31 301.217C185.095 301.863 184.879 302.509 184.664 303.155" fill="#074d66" fill-rule="evenodd" opacity="1" stroke="none"/>
<path d="M194.805 282.06C195.228 281.933 195.652 281.806 196.075 281.68" fill="#074d66" fill-rule="evenodd" opacity="1" stroke="none"/>
</g>
</svg>
